<svg xmlns="http://www.w3.org/2000/svg" xmlns:xlink="http://www.w3.org/1999/xlink" width="500" zoomAndPan="magnify" viewBox="0 0 375 374.999991" height="500" preserveAspectRatio="xMidYMid meet" version="1.0"><defs><g/><clipPath id="0243f4f888"><path d="M 124.871094 134.214844 L 271.113281 134.214844 L 271.113281 240.714844 L 124.871094 240.714844 Z M 124.871094 134.214844 " clip-rule="nonzero"/></clipPath><clipPath id="18f0b756c2"><path d="M 137.839844 142.6875 L 261.589844 142.6875 L 261.589844 201.1875 L 137.839844 201.1875 Z M 137.839844 142.6875 " clip-rule="nonzero"/></clipPath><clipPath id="37576e6488"><path d="M 142.722656 152.082031 L 168.222656 152.082031 L 168.222656 192.582031 L 142.722656 192.582031 Z M 142.722656 152.082031 " clip-rule="nonzero"/></clipPath></defs><g clip-path="url(#0243f4f888)"><path stroke-linecap="butt" transform="matrix(0.750481, 0, 0, 0.749588, 124.87047, 134.215129)" fill="none" stroke-linejoin="miter" d="M 0.000831267 -0.000380258 L 194.865427 -0.000380258 L 194.865427 142.077752 L 0.000831267 142.077752 L 0.000831267 -0.000380258 " stroke="#ff914d" stroke-width="6" stroke-opacity="1" stroke-miterlimit="4"/></g><g clip-path="url(#18f0b756c2)"><path fill="#ff914d" d="M 137.84375 142.6875 L 261.589844 142.6875 L 261.589844 201.1875 L 137.84375 201.1875 L 137.84375 142.6875 " fill-opacity="1" fill-rule="nonzero"/></g><g clip-path="url(#37576e6488)"><path fill="#ffffff" d="M 167.6875 180.648438 C 168.265625 181.238281 168.265625 182.191406 167.6875 182.777344 C 165.984375 184.488281 163.886719 185.742188 161.585938 186.425781 L 161.585938 190.785156 C 161.585938 191.617188 160.917969 192.289062 160.097656 192.289062 C 159.277344 192.289062 158.609375 191.617188 158.609375 190.785156 L 158.609375 187.019531 C 158.167969 187.0625 157.730469 187.085938 157.28125 187.085938 C 156.683594 187.082031 156.085938 187.042969 155.496094 186.96875 L 155.496094 190.785156 C 155.496094 191.617188 154.828125 192.289062 154.007812 192.289062 C 153.183594 192.289062 152.515625 191.617188 152.515625 190.785156 L 152.515625 186.257812 C 149.660156 185.242188 147.183594 183.359375 145.433594 180.863281 C 143.679688 178.371094 142.730469 175.390625 142.722656 172.332031 C 142.730469 169.269531 143.679688 166.285156 145.433594 163.785156 C 147.1875 161.292969 149.667969 159.40625 152.53125 158.394531 L 152.53125 153.875 C 152.53125 153.046875 153.195312 152.371094 154.019531 152.371094 C 154.839844 152.371094 155.503906 153.046875 155.503906 153.875 L 155.503906 157.6875 C 156.535156 157.554688 157.574219 157.539062 158.609375 157.640625 L 158.609375 153.875 C 158.609375 153.046875 159.277344 152.371094 160.097656 152.371094 C 160.917969 152.371094 161.585938 153.046875 161.585938 153.875 L 161.585938 158.230469 C 163.890625 158.917969 165.988281 160.175781 167.6875 161.894531 C 168.25 162.484375 168.242188 163.421875 167.664062 164.003906 C 167.089844 164.582031 166.164062 164.585938 165.578125 164.015625 C 163.996094 162.421875 161.984375 161.328125 159.789062 160.871094 C 158.011719 160.457031 156.164062 160.488281 154.398438 160.960938 C 152.40625 161.492188 150.585938 162.546875 149.132812 164.015625 C 147.195312 165.976562 146.007812 168.5625 145.773438 171.320312 C 145.535156 174.078125 146.273438 176.832031 147.851562 179.097656 C 149.429688 181.355469 151.746094 182.984375 154.394531 183.691406 C 156.144531 184.171875 157.984375 184.203125 159.753906 183.792969 C 161.957031 183.34375 163.984375 182.253906 165.578125 180.648438 C 165.859375 180.363281 166.238281 180.207031 166.632812 180.207031 C 167.03125 180.207031 167.410156 180.363281 167.6875 180.648438 " fill-opacity="1" fill-rule="nonzero"/></g><g fill="#ffffff" fill-opacity="1"><g transform="translate(170.500418, 179.493583)"><g><path d="M 1.90625 0 L 5.519531 0 L 5.519531 -4.953125 L 7.90625 -4.953125 L 10.742188 0 L 14.921875 0 L 11.628906 -5.519531 C 13.539062 -6.359375 14.648438 -8.085938 14.648438 -10.425781 C 14.648438 -13.808594 12.332031 -15.898438 8.699219 -15.898438 L 1.90625 -15.898438 Z M 5.472656 -7.996094 L 5.472656 -12.808594 L 8.222656 -12.808594 C 9.992188 -12.808594 10.992188 -11.949219 10.992188 -10.402344 C 10.992188 -8.859375 9.992188 -7.996094 8.222656 -7.996094 Z M 5.472656 -7.996094 "/></g></g></g><g fill="#ffffff" fill-opacity="1"><g transform="translate(188.214734, 179.493583)"><g><path d="M 6.066406 0 L 9.675781 0 L 9.675781 -5.609375 L 15.511719 -15.898438 L 11.402344 -15.898438 L 9.449219 -12.21875 L 7.882812 -9.335938 L 6.292969 -12.21875 L 4.316406 -15.898438 L 0.203125 -15.898438 L 6.066406 -5.566406 Z M 6.066406 0 "/></g></g></g><g fill="#ffffff" fill-opacity="1"><g transform="translate(205.65654, 179.493583)"><g><path d="M 1.90625 0 L 5.519531 0 L 5.519531 -4.429688 L 8.132812 -4.429688 C 11.96875 -4.429688 14.445312 -6.679688 14.445312 -10.152344 C 14.445312 -13.652344 11.96875 -15.898438 8.132812 -15.898438 L 1.90625 -15.898438 Z M 5.496094 -7.539062 L 5.496094 -12.742188 L 7.835938 -12.742188 C 9.722656 -12.742188 10.765625 -11.789062 10.765625 -10.128906 C 10.765625 -8.472656 9.722656 -7.539062 7.835938 -7.539062 Z M 5.496094 -7.539062 "/></g></g></g><g fill="#ffffff" fill-opacity="1"><g transform="translate(222.485181, 179.493583)"><g><path d="M 5.722656 0 L 9.335938 0 L 9.335938 -12.515625 L 14.378906 -12.515625 L 14.378906 -15.898438 L 0.679688 -15.898438 L 0.679688 -12.515625 L 5.722656 -12.515625 Z M 5.722656 0 "/></g></g></g><g fill="#ffffff" fill-opacity="1"><g transform="translate(239.268406, 179.493583)"><g><path d="M 9.449219 0.316406 C 14.421875 0.316406 17.945312 -3.089844 17.945312 -7.949219 C 17.945312 -12.808594 14.421875 -16.21875 9.449219 -16.21875 C 4.472656 -16.21875 0.976562 -12.808594 0.976562 -7.949219 C 0.976562 -3.089844 4.472656 0.316406 9.449219 0.316406 Z M 4.65625 -7.949219 C 4.65625 -10.8125 6.632812 -12.789062 9.449219 -12.789062 C 12.289062 -12.789062 14.242188 -10.8125 14.242188 -7.949219 C 14.242188 -5.085938 12.289062 -3.113281 9.449219 -3.113281 C 6.632812 -3.113281 4.65625 -5.085938 4.65625 -7.949219 Z M 4.65625 -7.949219 "/></g></g></g><g fill="#ff914d" fill-opacity="1"><g transform="translate(138.116084, 219.361889)"><g><path d="M 1.554688 0 L 5.796875 0 L 5.796875 -14.699219 L 1.554688 -14.699219 Z M 1.554688 0 "/></g></g></g><g fill="#ff914d" fill-opacity="1"><g transform="translate(145.466109, 219.361889)"><g><path d="M 1.554688 0 L 5.753906 0 L 5.753906 -7.496094 L 11.339844 0 L 14.785156 0 L 14.785156 -14.699219 L 10.605469 -14.699219 L 10.605469 -7.246094 L 5.019531 -14.699219 L 1.554688 -14.699219 Z M 1.554688 0 "/></g></g></g><g fill="#ff914d" fill-opacity="1"><g transform="translate(161.825174, 219.361889)"><g><path d="M 6.824219 0.316406 C 10.480469 0.316406 12.640625 -1.40625 12.640625 -4.304688 C 12.640625 -6.742188 11.066406 -8.167969 7.496094 -8.96875 C 5.605469 -9.386719 4.914062 -9.847656 4.914062 -10.605469 C 4.914062 -11.320312 5.542969 -11.761719 6.53125 -11.761719 C 7.707031 -11.761719 8.378906 -11.152344 8.378906 -10.039062 L 12.367188 -10.039062 C 12.367188 -13.0625 10.058594 -15.015625 6.445312 -15.015625 C 2.980469 -15.015625 0.839844 -13.292969 0.839844 -10.519531 C 0.839844 -8.042969 2.457031 -6.511719 5.773438 -5.878906 C 7.558594 -5.523438 8.421875 -4.976562 8.421875 -4.136719 C 8.421875 -3.402344 7.789062 -2.980469 6.761719 -2.980469 C 5.542969 -2.980469 4.828125 -3.632812 4.828125 -4.765625 L 0.734375 -4.765625 C 0.734375 -1.597656 3.003906 0.316406 6.824219 0.316406 Z M 6.824219 0.316406 "/></g></g></g><g fill="#ff914d" fill-opacity="1"><g transform="translate(175.244229, 219.361889)"><g><path d="M 1.554688 0 L 5.796875 0 L 5.796875 -14.699219 L 1.554688 -14.699219 Z M 1.554688 0 "/></g></g></g><g fill="#ff914d" fill-opacity="1"><g transform="translate(182.594254, 219.361889)"><g><path d="M 8.566406 0.316406 C 13.628906 0.316406 16.800781 -3.359375 16.339844 -8.527344 L 7.832031 -8.527344 L 7.832031 -5.542969 L 11.886719 -5.542969 C 11.464844 -4.304688 10.289062 -3.464844 8.609375 -3.464844 C 6.257812 -3.464844 4.894531 -5.125 4.894531 -7.351562 C 4.894531 -9.660156 6.382812 -11.234375 8.566406 -11.234375 C 9.871094 -11.234375 10.984375 -10.667969 11.550781 -9.742188 L 16.066406 -9.742188 C 15.203125 -12.957031 12.222656 -15.015625 8.503906 -15.015625 C 3.886719 -15.015625 0.714844 -11.863281 0.714844 -7.351562 C 0.714844 -2.8125 3.90625 0.316406 8.566406 0.316406 Z M 8.566406 0.316406 "/></g></g></g><g fill="#ff914d" fill-opacity="1"><g transform="translate(199.646327, 219.361889)"><g><path d="M 10.332031 0 L 14.574219 0 L 14.574219 -14.699219 L 10.332031 -14.699219 L 10.332031 -9.429688 L 5.796875 -9.429688 L 5.796875 -14.699219 L 1.554688 -14.699219 L 1.554688 0 L 5.796875 0 L 5.796875 -5.523438 L 10.332031 -5.523438 Z M 10.332031 0 "/></g></g></g><g fill="#ff914d" fill-opacity="1"><g transform="translate(215.774393, 219.361889)"><g><path d="M 5.0625 0 L 9.28125 0 L 9.28125 -10.773438 L 13.753906 -10.773438 L 13.753906 -14.699219 L 0.589844 -14.699219 L 0.589844 -10.773438 L 5.0625 -10.773438 Z M 5.0625 0 "/></g></g></g><g fill="#ff914d" fill-opacity="1"><g transform="translate(230.117455, 219.361889)"><g><path d="M 6.824219 0.316406 C 10.480469 0.316406 12.640625 -1.40625 12.640625 -4.304688 C 12.640625 -6.742188 11.066406 -8.167969 7.496094 -8.96875 C 5.605469 -9.386719 4.914062 -9.847656 4.914062 -10.605469 C 4.914062 -11.320312 5.542969 -11.761719 6.53125 -11.761719 C 7.707031 -11.761719 8.378906 -11.152344 8.378906 -10.039062 L 12.367188 -10.039062 C 12.367188 -13.0625 10.058594 -15.015625 6.445312 -15.015625 C 2.980469 -15.015625 0.839844 -13.292969 0.839844 -10.519531 C 0.839844 -8.042969 2.457031 -6.511719 5.773438 -5.878906 C 7.558594 -5.523438 8.421875 -4.976562 8.421875 -4.136719 C 8.421875 -3.402344 7.789062 -2.980469 6.761719 -2.980469 C 5.542969 -2.980469 4.828125 -3.632812 4.828125 -4.765625 L 0.734375 -4.765625 C 0.734375 -1.597656 3.003906 0.316406 6.824219 0.316406 Z M 6.824219 0.316406 "/></g></g></g><g fill="#ff914d" fill-opacity="1"><g transform="translate(140.930879, 231.653914)"><g><path d="M 1.027344 0.0859375 C 1.441406 0.0859375 1.738281 -0.207031 1.738281 -0.605469 C 1.738281 -1.003906 1.441406 -1.300781 1.027344 -1.300781 C 0.605469 -1.300781 0.3125 -1.003906 0.3125 -0.605469 C 0.3125 -0.207031 0.605469 0.0859375 1.027344 0.0859375 Z M 1.027344 0.0859375 "/></g></g></g><g fill="#ff914d" fill-opacity="1"><g transform="translate(143.557516, 231.653914)"><g><path d="M 2.511719 0.105469 C 3.78125 0.105469 4.5625 -0.496094 4.5625 -1.507812 C 4.5625 -2.359375 4.003906 -2.863281 2.671875 -3.179688 C 1.851562 -3.371094 1.570312 -3.578125 1.570312 -3.90625 C 1.570312 -4.257812 1.882812 -4.472656 2.398438 -4.472656 C 2.957031 -4.472656 3.292969 -4.179688 3.292969 -3.699219 L 4.464844 -3.699219 C 4.464844 -4.777344 3.652344 -5.46875 2.382812 -5.46875 C 1.148438 -5.46875 0.382812 -4.863281 0.382812 -3.882812 C 0.382812 -3.007812 0.972656 -2.488281 2.226562 -2.222656 C 2.988281 -2.058594 3.332031 -1.835938 3.332031 -1.460938 C 3.332031 -1.101562 3.007812 -0.894531 2.503906 -0.894531 C 1.914062 -0.894531 1.53125 -1.195312 1.53125 -1.707031 L 0.335938 -1.707031 C 0.335938 -0.597656 1.164062 0.105469 2.511719 0.105469 Z M 2.511719 0.105469 "/></g></g></g><g fill="#ff914d" fill-opacity="1"><g transform="translate(149.048178, 231.653914)"><g><path d="M 0.644531 0 L 1.859375 0 L 1.859375 -1.492188 L 2.742188 -1.492188 C 4.035156 -1.492188 4.871094 -2.25 4.871094 -3.421875 C 4.871094 -4.601562 4.035156 -5.359375 2.742188 -5.359375 L 0.644531 -5.359375 Z M 1.851562 -2.542969 L 1.851562 -4.296875 L 2.640625 -4.296875 C 3.277344 -4.296875 3.628906 -3.972656 3.628906 -3.414062 C 3.628906 -2.855469 3.277344 -2.542969 2.640625 -2.542969 Z M 1.851562 -2.542969 "/></g></g></g><g fill="#ff914d" fill-opacity="1"><g transform="translate(154.722634, 231.653914)"><g><path d="M 0.0703125 0 L 1.371094 0 L 1.730469 -0.925781 L 3.859375 -0.925781 L 4.21875 0 L 5.519531 0 L 3.390625 -5.359375 L 2.199219 -5.359375 Z M 2.042969 -1.882812 L 2.796875 -3.84375 L 3.554688 -1.882812 Z M 2.042969 -1.882812 "/></g></g></g><g fill="#ff914d" fill-opacity="1"><g transform="translate(160.894844, 231.653914)"><g><path d="M 3.101562 0.105469 C 4.511719 0.105469 5.605469 -0.75 5.875 -2.050781 L 4.617188 -2.050781 C 4.394531 -1.441406 3.828125 -1.050781 3.125 -1.050781 C 2.214844 -1.050781 1.570312 -1.714844 1.570312 -2.679688 C 1.570312 -3.644531 2.222656 -4.3125 3.132812 -4.3125 C 3.8125 -4.3125 4.371094 -3.945312 4.578125 -3.355469 L 5.835938 -3.355469 C 5.527344 -4.640625 4.457031 -5.46875 3.09375 -5.46875 C 1.46875 -5.46875 0.328125 -4.320312 0.328125 -2.679688 C 0.328125 -1.042969 1.46875 0.105469 3.101562 0.105469 Z M 3.101562 0.105469 "/></g></g></g><g fill="#ff914d" fill-opacity="1"><g transform="translate(167.656711, 231.653914)"><g><path d="M 0.644531 0 L 4.25 0 L 4.25 -1.035156 L 1.851562 -1.035156 L 1.851562 -2.207031 L 3.960938 -2.207031 L 3.960938 -3.222656 L 1.851562 -3.222656 L 1.851562 -4.335938 L 4.164062 -4.335938 L 4.164062 -5.359375 L 0.644531 -5.359375 Z M 0.644531 0 "/></g></g></g></svg>