<svg xmlns="http://www.w3.org/2000/svg" xmlns:xlink="http://www.w3.org/1999/xlink" width="500" zoomAndPan="magnify" viewBox="0 0 375 374.999991" height="500" preserveAspectRatio="xMidYMid meet" version="1.0"><defs><g/><clipPath id="c084d64370"><path d="M 56.5 152.015625 L 318.230469 152.015625 L 318.230469 224.015625 L 56.5 224.015625 Z M 56.5 152.015625 " clip-rule="nonzero"/></clipPath><clipPath id="8f53597647"><path d="M 63.558594 158.238281 L 187.308594 158.238281 L 187.308594 216.738281 L 63.558594 216.738281 Z M 63.558594 158.238281 " clip-rule="nonzero"/></clipPath><clipPath id="1b3193fd3e"><path d="M 68.441406 167.632812 L 93.941406 167.632812 L 93.941406 208 L 68.441406 208 Z M 68.441406 167.632812 " clip-rule="nonzero"/></clipPath></defs><g clip-path="url(#c084d64370)"><path stroke-linecap="butt" transform="matrix(0.750201, 0, 0, 0.75159, 56.498984, 152.016758)" fill="none" stroke-linejoin="miter" d="M 0.00135432 -0.00150749 L 348.881612 -0.00150749 L 348.881612 95.795376 L 0.00135432 95.795376 L 0.00135432 -0.00150749 " stroke="#ff914d" stroke-width="6" stroke-opacity="1" stroke-miterlimit="4"/></g><g clip-path="url(#8f53597647)"><path fill="#ff914d" d="M 63.5625 158.238281 L 187.308594 158.238281 L 187.308594 216.738281 L 63.5625 216.738281 L 63.5625 158.238281 " fill-opacity="1" fill-rule="nonzero"/></g><g clip-path="url(#1b3193fd3e)"><path fill="#ffffff" d="M 93.402344 196.199219 C 93.984375 196.789062 93.984375 197.742188 93.402344 198.328125 C 91.703125 200.039062 89.605469 201.292969 87.304688 201.976562 L 87.304688 206.339844 C 87.304688 207.167969 86.636719 207.839844 85.8125 207.839844 C 84.992188 207.839844 84.328125 207.167969 84.328125 206.339844 L 84.328125 202.570312 C 83.886719 202.613281 83.445312 202.636719 82.996094 202.636719 C 82.402344 202.632812 81.804688 202.59375 81.210938 202.519531 L 81.210938 206.339844 C 81.210938 207.167969 80.546875 207.839844 79.726562 207.839844 C 78.902344 207.839844 78.234375 207.167969 78.234375 206.339844 L 78.234375 201.808594 C 75.378906 200.792969 72.902344 198.910156 71.148438 196.414062 C 69.394531 193.921875 68.449219 190.941406 68.441406 187.882812 C 68.449219 184.820312 69.394531 181.835938 71.152344 179.335938 C 72.90625 176.84375 75.386719 174.957031 78.25 173.945312 L 78.25 169.425781 C 78.25 168.597656 78.914062 167.921875 79.734375 167.921875 C 80.554688 167.921875 81.222656 168.597656 81.222656 169.425781 L 81.222656 173.238281 C 82.253906 173.105469 83.292969 173.089844 84.328125 173.191406 L 84.328125 169.425781 C 84.328125 168.597656 84.992188 167.921875 85.8125 167.921875 C 86.636719 167.921875 87.304688 168.597656 87.304688 169.425781 L 87.304688 173.78125 C 89.609375 174.46875 91.707031 175.726562 93.402344 177.445312 C 93.96875 178.035156 93.957031 178.972656 93.382812 179.554688 C 92.808594 180.132812 91.882812 180.136719 91.296875 179.566406 C 89.714844 177.972656 87.699219 176.878906 85.507812 176.421875 C 83.730469 176.007812 81.882812 176.039062 80.117188 176.511719 C 78.125 177.042969 76.304688 178.097656 74.851562 179.566406 C 72.914062 181.527344 71.726562 184.113281 71.488281 186.871094 C 71.253906 189.628906 71.992188 192.382812 73.570312 194.648438 C 75.148438 196.90625 77.464844 198.535156 80.109375 199.242188 C 81.859375 199.722656 83.703125 199.753906 85.46875 199.34375 C 87.675781 198.894531 89.703125 197.804688 91.296875 196.199219 C 91.578125 195.914062 91.957031 195.757812 92.351562 195.757812 C 92.75 195.757812 93.125 195.914062 93.402344 196.199219 " fill-opacity="1" fill-rule="nonzero"/></g><g fill="#ffffff" fill-opacity="1"><g transform="translate(96.218356, 195.044524)"><g><path d="M 1.90625 0 L 5.519531 0 L 5.519531 -4.953125 L 7.90625 -4.953125 L 10.742188 0 L 14.921875 0 L 11.628906 -5.519531 C 13.539062 -6.359375 14.648438 -8.085938 14.648438 -10.425781 C 14.648438 -13.808594 12.332031 -15.898438 8.699219 -15.898438 L 1.90625 -15.898438 Z M 5.472656 -7.996094 L 5.472656 -12.808594 L 8.222656 -12.808594 C 9.992188 -12.808594 10.992188 -11.949219 10.992188 -10.402344 C 10.992188 -8.859375 9.992188 -7.996094 8.222656 -7.996094 Z M 5.472656 -7.996094 "/></g></g></g><g fill="#ffffff" fill-opacity="1"><g transform="translate(113.932672, 195.044524)"><g><path d="M 6.066406 0 L 9.675781 0 L 9.675781 -5.609375 L 15.511719 -15.898438 L 11.402344 -15.898438 L 9.449219 -12.21875 L 7.882812 -9.335938 L 6.292969 -12.21875 L 4.316406 -15.898438 L 0.203125 -15.898438 L 6.066406 -5.566406 Z M 6.066406 0 "/></g></g></g><g fill="#ffffff" fill-opacity="1"><g transform="translate(131.374479, 195.044524)"><g><path d="M 1.90625 0 L 5.519531 0 L 5.519531 -4.429688 L 8.132812 -4.429688 C 11.96875 -4.429688 14.445312 -6.679688 14.445312 -10.152344 C 14.445312 -13.652344 11.96875 -15.898438 8.132812 -15.898438 L 1.90625 -15.898438 Z M 5.496094 -7.539062 L 5.496094 -12.742188 L 7.835938 -12.742188 C 9.722656 -12.742188 10.765625 -11.789062 10.765625 -10.128906 C 10.765625 -8.472656 9.722656 -7.539062 7.835938 -7.539062 Z M 5.496094 -7.539062 "/></g></g></g><g fill="#ffffff" fill-opacity="1"><g transform="translate(148.20312, 195.044524)"><g><path d="M 5.722656 0 L 9.335938 0 L 9.335938 -12.515625 L 14.378906 -12.515625 L 14.378906 -15.898438 L 0.679688 -15.898438 L 0.679688 -12.515625 L 5.722656 -12.515625 Z M 5.722656 0 "/></g></g></g><g fill="#ffffff" fill-opacity="1"><g transform="translate(164.986344, 195.044524)"><g><path d="M 9.449219 0.316406 C 14.421875 0.316406 17.945312 -3.089844 17.945312 -7.949219 C 17.945312 -12.808594 14.421875 -16.21875 9.449219 -16.21875 C 4.472656 -16.21875 0.976562 -12.808594 0.976562 -7.949219 C 0.976562 -3.089844 4.472656 0.316406 9.449219 0.316406 Z M 4.65625 -7.949219 C 4.65625 -10.8125 6.632812 -12.789062 9.449219 -12.789062 C 12.289062 -12.789062 14.242188 -10.8125 14.242188 -7.949219 C 14.242188 -5.085938 12.289062 -3.113281 9.449219 -3.113281 C 6.632812 -3.113281 4.65625 -5.085938 4.65625 -7.949219 Z M 4.65625 -7.949219 "/></g></g></g><g fill="#ff914d" fill-opacity="1"><g transform="translate(200.211831, 194.245871)"><g><path d="M 1.554688 0 L 5.796875 0 L 5.796875 -14.699219 L 1.554688 -14.699219 Z M 1.554688 0 "/></g></g></g><g fill="#ff914d" fill-opacity="1"><g transform="translate(207.561856, 194.245871)"><g><path d="M 1.554688 0 L 5.753906 0 L 5.753906 -7.496094 L 11.339844 0 L 14.785156 0 L 14.785156 -14.699219 L 10.605469 -14.699219 L 10.605469 -7.246094 L 5.019531 -14.699219 L 1.554688 -14.699219 Z M 1.554688 0 "/></g></g></g><g fill="#ff914d" fill-opacity="1"><g transform="translate(223.920921, 194.245871)"><g><path d="M 6.824219 0.316406 C 10.480469 0.316406 12.640625 -1.40625 12.640625 -4.304688 C 12.640625 -6.742188 11.066406 -8.167969 7.496094 -8.96875 C 5.605469 -9.386719 4.914062 -9.847656 4.914062 -10.605469 C 4.914062 -11.320312 5.542969 -11.761719 6.53125 -11.761719 C 7.707031 -11.761719 8.378906 -11.152344 8.378906 -10.039062 L 12.367188 -10.039062 C 12.367188 -13.0625 10.058594 -15.015625 6.445312 -15.015625 C 2.980469 -15.015625 0.839844 -13.292969 0.839844 -10.519531 C 0.839844 -8.042969 2.457031 -6.511719 5.773438 -5.878906 C 7.558594 -5.523438 8.421875 -4.976562 8.421875 -4.136719 C 8.421875 -3.402344 7.789062 -2.980469 6.761719 -2.980469 C 5.542969 -2.980469 4.828125 -3.632812 4.828125 -4.765625 L 0.734375 -4.765625 C 0.734375 -1.597656 3.003906 0.316406 6.824219 0.316406 Z M 6.824219 0.316406 "/></g></g></g><g fill="#ff914d" fill-opacity="1"><g transform="translate(237.339976, 194.245871)"><g><path d="M 1.554688 0 L 5.796875 0 L 5.796875 -14.699219 L 1.554688 -14.699219 Z M 1.554688 0 "/></g></g></g><g fill="#ff914d" fill-opacity="1"><g transform="translate(244.690001, 194.245871)"><g><path d="M 8.566406 0.316406 C 13.628906 0.316406 16.800781 -3.359375 16.339844 -8.527344 L 7.832031 -8.527344 L 7.832031 -5.542969 L 11.886719 -5.542969 C 11.464844 -4.304688 10.289062 -3.464844 8.609375 -3.464844 C 6.257812 -3.464844 4.894531 -5.125 4.894531 -7.351562 C 4.894531 -9.660156 6.382812 -11.234375 8.566406 -11.234375 C 9.871094 -11.234375 10.984375 -10.667969 11.550781 -9.742188 L 16.066406 -9.742188 C 15.203125 -12.957031 12.222656 -15.015625 8.503906 -15.015625 C 3.886719 -15.015625 0.714844 -11.863281 0.714844 -7.351562 C 0.714844 -2.8125 3.90625 0.316406 8.566406 0.316406 Z M 8.566406 0.316406 "/></g></g></g><g fill="#ff914d" fill-opacity="1"><g transform="translate(261.742074, 194.245871)"><g><path d="M 10.332031 0 L 14.574219 0 L 14.574219 -14.699219 L 10.332031 -14.699219 L 10.332031 -9.429688 L 5.796875 -9.429688 L 5.796875 -14.699219 L 1.554688 -14.699219 L 1.554688 0 L 5.796875 0 L 5.796875 -5.523438 L 10.332031 -5.523438 Z M 10.332031 0 "/></g></g></g><g fill="#ff914d" fill-opacity="1"><g transform="translate(277.87014, 194.245871)"><g><path d="M 5.0625 0 L 9.28125 0 L 9.28125 -10.773438 L 13.753906 -10.773438 L 13.753906 -14.699219 L 0.589844 -14.699219 L 0.589844 -10.773438 L 5.0625 -10.773438 Z M 5.0625 0 "/></g></g></g><g fill="#ff914d" fill-opacity="1"><g transform="translate(292.213202, 194.245871)"><g><path d="M 6.824219 0.316406 C 10.480469 0.316406 12.640625 -1.40625 12.640625 -4.304688 C 12.640625 -6.742188 11.066406 -8.167969 7.496094 -8.96875 C 5.605469 -9.386719 4.914062 -9.847656 4.914062 -10.605469 C 4.914062 -11.320312 5.542969 -11.761719 6.53125 -11.761719 C 7.707031 -11.761719 8.378906 -11.152344 8.378906 -10.039062 L 12.367188 -10.039062 C 12.367188 -13.0625 10.058594 -15.015625 6.445312 -15.015625 C 2.980469 -15.015625 0.839844 -13.292969 0.839844 -10.519531 C 0.839844 -8.042969 2.457031 -6.511719 5.773438 -5.878906 C 7.558594 -5.523438 8.421875 -4.976562 8.421875 -4.136719 C 8.421875 -3.402344 7.789062 -2.980469 6.761719 -2.980469 C 5.542969 -2.980469 4.828125 -3.632812 4.828125 -4.765625 L 0.734375 -4.765625 C 0.734375 -1.597656 3.003906 0.316406 6.824219 0.316406 Z M 6.824219 0.316406 "/></g></g></g><g fill="#ff914d" fill-opacity="1"><g transform="translate(201.214615, 203.794975)"><g><path d="M 1.027344 0.0859375 C 1.441406 0.0859375 1.738281 -0.207031 1.738281 -0.605469 C 1.738281 -1.003906 1.441406 -1.300781 1.027344 -1.300781 C 0.605469 -1.300781 0.3125 -1.003906 0.3125 -0.605469 C 0.3125 -0.207031 0.605469 0.0859375 1.027344 0.0859375 Z M 1.027344 0.0859375 "/></g></g></g><g fill="#ff914d" fill-opacity="1"><g transform="translate(203.841252, 203.794975)"><g><path d="M 2.511719 0.105469 C 3.78125 0.105469 4.5625 -0.496094 4.5625 -1.507812 C 4.5625 -2.359375 4.003906 -2.863281 2.671875 -3.179688 C 1.851562 -3.371094 1.570312 -3.578125 1.570312 -3.90625 C 1.570312 -4.257812 1.882812 -4.472656 2.398438 -4.472656 C 2.957031 -4.472656 3.292969 -4.179688 3.292969 -3.699219 L 4.464844 -3.699219 C 4.464844 -4.777344 3.652344 -5.46875 2.382812 -5.46875 C 1.148438 -5.46875 0.382812 -4.863281 0.382812 -3.882812 C 0.382812 -3.007812 0.972656 -2.488281 2.226562 -2.222656 C 2.988281 -2.058594 3.332031 -1.835938 3.332031 -1.460938 C 3.332031 -1.101562 3.007812 -0.894531 2.503906 -0.894531 C 1.914062 -0.894531 1.53125 -1.195312 1.53125 -1.707031 L 0.335938 -1.707031 C 0.335938 -0.597656 1.164062 0.105469 2.511719 0.105469 Z M 2.511719 0.105469 "/></g></g></g><g fill="#ff914d" fill-opacity="1"><g transform="translate(209.331914, 203.794975)"><g><path d="M 0.644531 0 L 1.859375 0 L 1.859375 -1.492188 L 2.742188 -1.492188 C 4.035156 -1.492188 4.871094 -2.25 4.871094 -3.421875 C 4.871094 -4.601562 4.035156 -5.359375 2.742188 -5.359375 L 0.644531 -5.359375 Z M 1.851562 -2.542969 L 1.851562 -4.296875 L 2.640625 -4.296875 C 3.277344 -4.296875 3.628906 -3.972656 3.628906 -3.414062 C 3.628906 -2.855469 3.277344 -2.542969 2.640625 -2.542969 Z M 1.851562 -2.542969 "/></g></g></g><g fill="#ff914d" fill-opacity="1"><g transform="translate(215.00637, 203.794975)"><g><path d="M 0.0703125 0 L 1.371094 0 L 1.730469 -0.925781 L 3.859375 -0.925781 L 4.21875 0 L 5.519531 0 L 3.390625 -5.359375 L 2.199219 -5.359375 Z M 2.042969 -1.882812 L 2.796875 -3.84375 L 3.554688 -1.882812 Z M 2.042969 -1.882812 "/></g></g></g><g fill="#ff914d" fill-opacity="1"><g transform="translate(221.17858, 203.794975)"><g><path d="M 3.101562 0.105469 C 4.511719 0.105469 5.605469 -0.75 5.875 -2.050781 L 4.617188 -2.050781 C 4.394531 -1.441406 3.828125 -1.050781 3.125 -1.050781 C 2.214844 -1.050781 1.570312 -1.714844 1.570312 -2.679688 C 1.570312 -3.644531 2.222656 -4.3125 3.132812 -4.3125 C 3.8125 -4.3125 4.371094 -3.945312 4.578125 -3.355469 L 5.835938 -3.355469 C 5.527344 -4.640625 4.457031 -5.46875 3.09375 -5.46875 C 1.46875 -5.46875 0.328125 -4.320312 0.328125 -2.679688 C 0.328125 -1.042969 1.46875 0.105469 3.101562 0.105469 Z M 3.101562 0.105469 "/></g></g></g><g fill="#ff914d" fill-opacity="1"><g transform="translate(227.940447, 203.794975)"><g><path d="M 0.644531 0 L 4.25 0 L 4.25 -1.035156 L 1.851562 -1.035156 L 1.851562 -2.207031 L 3.960938 -2.207031 L 3.960938 -3.222656 L 1.851562 -3.222656 L 1.851562 -4.335938 L 4.164062 -4.335938 L 4.164062 -5.359375 L 0.644531 -5.359375 Z M 0.644531 0 "/></g></g></g></svg>